#!OML:ASF E:\id_vita\Project 1\Capture day 1\Session 1\Female.ASF
:FULLY-SPECIFIED
:DEGREES
783
root -23.3134 16.3095 2.60443 -167.819 29.0085 -178.044
lowerback -7.35021 -3.7266 -3.2055
upperback -3.45204 -4.60055 1.94133
thorax 0.954736 -2.18619 3.41536
lowerneck 4.01169 -8.24642 -9.6788
upperneck 16.9483 -12.4627 18.4243
head 6.17396 -5.18446 7.03706
rclavicle -5.96082e-014 6.85807e-015
rhumerus -44.663 -22.2551 -74.2396
rradius 32.4354
rwrist 1.45184
rhand -12.9862 5.41948
rfingers 7.12502
rthumb 13.1065 -24.1487
lclavicle -5.96082e-014 6.85807e-015
lhumerus -30.2496 17.4587 85.6057
lradius 16.8317
lwrist -36.5227
lhand -8.06086 24.2534
lfingers 7.12502
lthumb 17.8503 53.4542
rfemur -32.7855 -12.0392 22.8269
rtibia 40.6374
rfoot -8.03452 -16.7276
rtoes 1.30687
lfemur -15.6626 -14.1664 -17.5487
ltibia 27.931
lfoot -16.6678 33.9605
ltoes 0.0598926
784
root -23.2616 16.3105 2.60013 -168.116 29.7299 -178.231
lowerback -7.16212 -3.71754 -3.27798
upperback -3.35637 -4.59892 1.83047
thorax 0.946005 -2.19179 3.34949
lowerneck 4.07095 -8.45263 -9.62179
upperneck 17.0575 -12.7555 18.3309
head 6.23591 -5.32687 6.97611
rclavicle 8.63719e-014 1.55052e-014
rhumerus -44.7612 -22.7221 -73.8399
rradius 32.0783
rwrist 1.769
rhand -12.7715 5.50299
rfingers 7.12502
rthumb 13.3134 -24.0517
lclavicle 8.63719e-014 1.55052e-014
lhumerus -30.6236 18.1424 84.8084
lradius 16.7057
lwrist -37.6353
lhand -7.62682 24.2082
lfingers 7.12502
lthumb 18.2679 53.3704
rfemur -32.4609 -12.0492 22.3906
rtibia 40.2316
rfoot -7.15983 -17.7157
rtoes 1.55286
lfemur -15.0902 -14.1035 -17.8025
ltibia 27.7653
lfoot -16.7267 34.4572
ltoes 0.725592
785
root -23.2067 16.3095 2.59758 -168.202 30.3859 -178.31
lowerback -7.18435 -3.72081 -3.29246
upperback -3.26481 -4.60791 1.8007
thorax 1.05226 -2.20264 3.32111
lowerneck 4.19945 -8.62914 -9.67148
upperneck 17.0242 -13.0128 18.3516
head 6.24886 -5.46544 6.97528
rclavicle 5.74612e-017 -9.74045e-015
rhumerus -44.6924 -23.1025 -73.4564
rradius 31.4928
rwrist 2.31086
rhand -12.9709 5.57731
rfingers 7.12502
rthumb 13.1213 -23.9899
lclavicle 5.74612e-017 -9.74045e-015
lhumerus -30.922 18.881 84.0989
lradius 16.4927
lwrist -38.4018
lhand -7.37806 23.6129
lfingers 7.12502
lthumb 18.5072 52.7525
rfemur -32.3504 -12.0548 22.0942
rtibia 39.8198
rfoot -6.67976 -18.8393
rtoes 3.87879
lfemur -14.7277 -14.1106 -17.8577
ltibia 27.6169
lfoot -17.0114 34.8316
ltoes 1.92038
786
root -23.1549 16.3056 2.59713 -167.953 31.0966 -178.217
lowerback -7.41227 -3.7152 -3.1459
upperback -3.25265 -4.60234 1.85924
thorax 1.18389 -2.20204 3.28575
lowerneck 4.42099 -8.72898 -9.9301
upperneck 16.914 -13.1886 18.6024
head 6.23712 -5.57288 7.09971
rclavicle -2.97121e-014 -1.97294e-014
rhumerus -44.5846 -23.3164 -73.081
rradius 30.9158
rwrist 2.81644
rhand -13.2132 5.61768
rfingers 7.12502
rthumb 12.8876 -23.9644
lclavicle -2.97121e-014 -1.97294e-014
lhumerus -31.1553 19.2575 83.7966
lradius 16.3436
lwrist -38.4691
lhand -7.51956 23.9823
lfingers 7.12502
lthumb 18.3711 53.1348
rfemur -32.5166 -12.0278 21.9935
rtibia 39.4061
rfoot -5.87203 -19.6999
rtoes 4.43586
lfemur -14.6483 -14.0723 -17.6983
ltibia 27.4753
lfoot -17.146 35.2531
ltoes 2.83393
787
root -23.1052 16.2987 2.59687 -167.74 31.923 -178.119
lowerback -7.50326 -3.68794 -2.96173
upperback -3.26075 -4.57581 1.915
thorax 1.21416 -2.1895 3.23787
lowerneck 4.5251 -8.79938 -10.1698
upperneck 16.9219 -13.3211 18.732
head 6.268 -5.65455 7.17944
rclavicle 9.97185e-014 2.36554e-014
rhumerus -44.5401 -23.6426 -72.5967
rradius 30.4795
rwrist 3.24416
rhand -13.2002 5.85076
rfingers 7.12502
rthumb 12.9002 -23.7305
lclavicle 9.97185e-014 2.36554e-014
lhumerus -31.4785 19.7792 83.3997
lradius 16.1703
lwrist -38.3375
lhand -8.13319 24.7687
lfingers 7.12502
lthumb 17.7807 53.9758
rfemur -32.6915 -12.0438 21.9403
rtibia 39.0025
rfoot -4.98429 -20.5655
rtoes 3.58965
lfemur -14.5166 -13.7342 -17.6275
ltibia 27.3342
lfoot -16.8029 35.7509
ltoes 2.57418
788
root -23.0515 16.2952 2.59381 -167.735 32.6646 -178.218
lowerback -7.50087 -3.75731 -2.8697
upperback -3.29899 -4.67348 1.90289
thorax 1.17293 -2.23739 3.16625
lowerneck 4.75128 -8.87316 -9.94036
upperneck 16.8956 -13.388 18.3832
head 6.19245 -5.71067 7.02237
rclavicle -5.2657e-014 -6.70898e-015
rhumerus -44.6829 -23.8319 -72.1872
rradius 30.2505
rwrist 3.61967
rhand -13.11 6.04857
rfingers 7.12502
rthumb 12.9871 -23.5272
lclavicle -5.2657e-014 -6.70898e-015
lhumerus -32.1343 20.9644 82.3213
lradius 15.9919
lwrist -39.4246
lhand -8.26234 24.5171
lfingers 7.12502
lthumb 17.6564 53.7355
rfemur -32.7373 -12.1851 21.7255
rtibia 38.5995
rfoot -4.77411 -21.6056
rtoes 5.68589
lfemur -14.2669 -13.28 -17.7634
ltibia 27.1535
lfoot -16.3752 36.1501
ltoes 1.73653
789
root -22.9952 16.2966 2.58934 -167.895 33.3222 -178.527
lowerback -7.52504 -3.87049 -3.02736
upperback -3.34037 -4.81158 1.86792
thorax 1.1637 -2.30452 3.20466
lowerneck 5.23101 -8.84466 -9.89166
upperneck 16.7834 -13.3275 18.2083
head 6.0488 -5.72079 6.97861
rclavicle 2.47856e-014 1.18028e-014
rhumerus -45.0098 -23.8528 -71.8153
rradius 30.2258
rwrist 3.80827
rhand -12.9912 5.96498
rfingers 7.12502
rthumb 13.1017 -23.6035
lclavicle 2.47856e-014 1.18028e-014
lhumerus -33.005 22.8547 80.7012
lradius 15.7614
lwrist -42.3531
lhand -7.71441 23.5903
lfingers 7.12502
lthumb 18.1836 52.7604
rfemur -32.7008 -12.3595 21.2565
rtibia 38.1851
rfoot -4.95718 -22.4987
rtoes 9.27959
lfemur -13.9117 -13.0713 -18.0673
ltibia 26.9051
lfoot -16.1651 36.5535
ltoes 1.7027
790
root -22.9361 16.2984 2.58729 -167.974 34.0631 -178.609
lowerback -7.51543 -3.90139 -3.07351
upperback -3.29132 -4.85489 1.89186
thorax 1.21823 -2.32948 3.24945
lowerneck 5.49766 -8.82478 -9.82837
upperneck 16.6363 -13.2864 18.1135
head 5.93919 -5.72804 6.94776
rclavicle -3.54407e-014 8.12532e-015
rhumerus -45.1379 -24.1105 -71.3874
rradius 30.0805
rwrist 3.99448
rhand -12.8905 5.70088
rfingers 7.12502
rthumb 13.1987 -23.8613
lclavicle -3.54407e-014 8.12532e-015
lhumerus -33.5799 24.0796 79.677
lradius 15.4507
lwrist -43.7084
lhand -7.64238 23.3156
lfingers 7.12502
lthumb 18.2529 52.4792
rfemur -32.618 -12.2894 20.9517
rtibia 37.7382
rfoot -4.69525 -23.4605
rtoes 10.9618
lfemur -13.4583 -12.9701 -18.1566
ltibia 26.614
lfoot -16.2209 37.0001
ltoes 2.39478
791
root -22.871 16.298 2.58702 -167.858 34.8329 -178.493
lowerback -7.52857 -3.89875 -2.89857
upperback -3.27355 -4.86509 1.91568
thorax 1.23261 -2.33678 3.17408
lowerneck 5.61951 -8.84306 -9.64205
upperneck 16.5187 -13.293 17.995
head 5.86194 -5.74299 6.87824
rclavicle 1.6525e-014 1.52691e-014
rhumerus -45.1123 -24.5039 -70.981
rradius 29.686
rwrist 4.2361
rhand -13.0152 5.53162
rfingers 7.12502
rthumb 13.0786 -24.0383
lclavicle 1.6525e-014 1.52691e-014
lhumerus -33.9681 24.0712 79.3503
lradius 15.2024
lwrist -43.1849
lhand -7.87329 23.8342
lfingers 7.12502
lthumb 18.0308 53.0184
rfemur -32.645 -12.2126 20.8928
rtibia 37.2763
rfoot -4.38639 -24.4268
rtoes 11.7814
lfemur -13.0928 -12.926 -18.0127
ltibia 26.3278
lfoot -16.3159 37.4879
ltoes 3.32988
792
root -22.8054 16.2946 2.58623 -167.824 35.5675 -178.6
lowerback -7.57518 -3.89335 -2.88836
upperback -3.2765 -4.85776 1.90178
thorax 1.25268 -2.33374 3.15185
lowerneck 5.65773 -8.91309 -9.65498
upperneck 16.4702 -13.3986 18.0032
head 5.85817 -5.8039 6.87561
rclavicle -4.36076e-014 7.76503e-016
rhumerus -45.1899 -24.9803 -70.5063
rradius 29.2992
rwrist 4.56659
rhand -13.3597 5.64653
rfingers 7.12502
rthumb 12.7464 -23.9444
lclavicle -4.36076e-014 7.76503e-016
lhumerus -34.6517 25.438 78.0479
lradius 14.8823
lwrist -45.2671
lhand -7.1171 23.3285
lfingers 7.12502
lthumb 18.7582 52.4441
rfemur -32.7273 -12.34 20.6893
rtibia 36.7966
rfoot -4.22158 -25.1823
rtoes 13.0113
lfemur -12.8041 -12.6237 -18.0652
ltibia 26.0819
lfoot -15.6868 37.7879
ltoes 2.57892
